<svg xmlns="http://www.w3.org/2000/svg" viewBox="0 0 1024 1024" role="img" aria-label="Псё app icon">
  <defs>
    <radialGradient id="sky" cx="78%" cy="18%" r="76%">
      <stop offset="0" stop-color="#DDF5FF"/>
      <stop offset="0.42" stop-color="#F7F2DE"/>
      <stop offset="1" stop-color="#FFE6BA"/>
    </radialGradient>
    <radialGradient id="mint" cx="38%" cy="28%" r="60%">
      <stop offset="0" stop-color="#B8F2BE" stop-opacity=".95"/>
      <stop offset="1" stop-color="#B8F2BE" stop-opacity="0"/>
    </radialGradient>
    <radialGradient id="blue" cx="68%" cy="38%" r="58%">
      <stop offset="0" stop-color="#AEE7F7" stop-opacity=".9"/>
      <stop offset="1" stop-color="#AEE7F7" stop-opacity="0"/>
    </radialGradient>
    <filter id="softShadow" x="-18%" y="-18%" width="136%" height="136%">
      <feDropShadow dx="0" dy="32" stdDeviation="36" flood-color="#231B33" flood-opacity=".18"/>
    </filter>
    <filter id="blur"><feGaussianBlur stdDeviation="34"/></filter>
    <linearGradient id="glass" x1="18%" y1="10%" x2="82%" y2="94%">
      <stop offset="0" stop-color="#FFFFFF" stop-opacity=".72"/>
      <stop offset="1" stop-color="#FFFFFF" stop-opacity=".28"/>
    </linearGradient>
  </defs>

  <rect width="1024" height="1024" rx="232" fill="url(#sky)"/>
  <circle cx="330" cy="245" r="260" fill="url(#mint)" filter="url(#blur)"/>
  <circle cx="720" cy="350" r="270" fill="url(#blue)" filter="url(#blur)"/>
  <circle cx="170" cy="850" r="230" fill="#FFCF7A" opacity=".28" filter="url(#blur)"/>

  <g filter="url(#softShadow)">
    <circle cx="512" cy="492" r="314" fill="url(#glass)" stroke="#FFFFFF" stroke-width="10"/>
    <circle cx="512" cy="492" r="246" fill="#FFF8E8" opacity=".74"/>

    <!-- calm dog companion mark -->
    <path d="M323 453c-40-80-20-167 45-194 55-23 112 7 144 58 32-51 89-81 144-58 65 27 85 114 45 194l-33 66c-19 39-51 67-90 80l-66 22-66-22c-39-13-71-41-90-80l-33-66Z" fill="#22192D"/>
    <path d="M366 453c-24-50-12-100 27-116 37-15 78 13 92 65l10 39h34l10-39c14-52 55-80 92-65 39 16 51 66 27 116l-31 62c-16 31-42 54-74 65l-41 14-41-14c-32-11-58-34-74-65l-31-62Z" fill="#2D2238"/>
    <ellipse cx="512" cy="555" rx="116" ry="92" fill="#FFF3D1"/>
    <circle cx="442" cy="473" r="19" fill="#FFF9E9"/>
    <circle cx="582" cy="473" r="19" fill="#FFF9E9"/>
    <path d="M479 537c0-19 16-31 33-31s33 12 33 31c0 18-21 33-33 42-12-9-33-24-33-42Z" fill="#14101B"/>
    <path d="M474 598c25 24 51 24 76 0" fill="none" stroke="#14101B" stroke-width="15" stroke-linecap="round"/>

    <!-- status / care signal -->
    <circle cx="657" cy="330" r="42" fill="#B8F2BE" stroke="#FFFFFF" stroke-width="12"/>
    <path d="M657 282v96M609 330h96" stroke="#22192D" stroke-width="10" stroke-linecap="round" opacity=".82"/>
  </g>

  <path d="M334 808c84 38 253 45 356-2" fill="none" stroke="#22192D" stroke-width="20" stroke-linecap="round" opacity=".16"/>
</svg>
